<svg width="11" height="14" viewBox="0 0 11 14" fill="none" xmlns="http://www.w3.org/2000/svg">
<path d="M3.41766 0C6.53956 0.407167 4.32878 3.39905 6.62985 4.74782C7.39322 3.92013 7.26736 2.14348 7.29746 0.948964L7.77354 0.54452C9.81467 0.684875 8.6491 3.28704 10.589 4.5903C10.4878 5.68016 9.85846 5.62593 9.21547 6.90112L9.58758 7.20745L10.3017 7.09598C10.2908 7.843 9.00478 8.59519 8.72844 9.46839C8.43841 10.3857 8.41107 11.628 8.37824 12.581L7.70513 13.174C6.23037 11.4819 7.1798 9.67961 5.87742 8.53033L5.40134 8.77943C4.5121 10.3909 4.67628 10.4896 4.31511 12.2583L3.78705 12.5802L3.1933 12.3306C2.53663 11.4336 2.77742 10.2468 2.7227 9.00454C1.94838 8.26543 1.66929 8.67068 0.219152 8.43194L0 7.9948C0.539286 7.46091 0.93054 7.29493 1.58721 6.93519L1.58174 6.48196C0.974329 6.32825 0.618621 6.30099 0.164427 5.88538C1.03177 4.20493 1.8663 4.83422 2.99905 3.98663C3.4505 2.99924 3.38483 1.15173 3.41766 0Z" fill="#392067"/>
</svg>
